<?xml version="1.0" encoding="utf-8"?>
<svg xmlns="http://www.w3.org/2000/svg" xmlns:xlink="http://www.w3.org/1999/xlink" 
     viewBox="0 0 1920 1080" width="1920" height="1080">
<style type="text/css">
  .line { fill: none; stroke: #000000; stroke-miterlimit: 10; }
</style>
<path class="line" d="M75.96,903.78c-2.71,25.52,26.75,45.15,52.19,41.81c25.44-3.34,45.98-21.95,63.28-40.9
	c43.42-47.57,77.94-103.23,101.26-163.27c7.95-20.47,13.45-46.74-2.44-61.9c-22.57-21.53-59.25,3.03-76,29.34
	c-35.37,55.57-48.4,124.92-35.61,189.54c5.38,27.16,18.5,56.82,44.99,64.88c27.61,8.39,55.64-10.6,76.72-30.31
	c87.95-82.25,143.94-197.84,153.97-317.84C340.41,674.6,266.95,804.06,274.34,932.35c1.02,17.64,5.64,38.3,21.94,45.13
	c16.68,6.99,34.93-4.86,48.54-16.78c84.44-73.89,143.23-176.55,164.22-286.77c3.5-18.38,4.64-40.64-9.94-52.36
	c-18.82-15.13-46.43-0.29-64.51,15.72c-71.67,63.41-123.43,149.01-146.31,241.93c-7.71,31.32-10.52,68.95,12.65,91.39
	c28.91,28,77.65,13.4,110.84-9.37c84.02-57.65,135.92-159.32,133.32-261.18c-0.86-33.59-18.8-76.38-52.15-72.25
	c-18.5,2.29-31.42,18.94-41.68,34.51c-43.31,65.74-78.2,137.02-103.53,211.56c-9.77,28.76-16.53,64.83,5.32,85.93
	c25.14,24.26,67.13,9.2,95.85-10.68c91.74-63.52,155.2-166.42,170.79-276.91c3.45-24.49-3.35-58.65-28.08-58.76
	c-13.19-0.05-23.57,10.77-31.94,20.96c-57.68,70.29-102.52,151.08-131.64,237.22c-10.8,31.95-15.3,75.51,14.33,91.65
	c24.04,13.09,53.39-2.51,74.7-19.68c68.39-55.12,118.92-132.06,142.32-216.72c6.96-25.16,7.38-59.46-16.8-69.29
	c-22.03-8.96-44.58,10.92-59.16,29.71c-52.36,67.5-90.66,145.86-111.76,228.64c-6.28,24.64-8.71,55.99,12.27,70.36
	c22.55,15.43,52.8-1.58,73.14-19.82c76.44-68.57,129.68-162.55,149.21-263.36c3.53-18.22,2.23-42.92-15.64-47.94
	c-13.32-3.74-26,7-35.38,17.17c-66,71.65-114.31,159.48-139.47,253.59c-4.92,18.4-6.78,42.51,9.71,52.03
	c13.8,7.97,31.1-0.26,44.28-9.21c84.46-57.32,143.36-150.93,158.49-251.88c5.09-33.94-3.72-79.95-37.85-83.52
	c-23.82-2.49-42.78,18.84-56.27,38.64c-49.86,73.23-87.01,155.09-109.29,240.83c-7.19,27.68-10.22,62.97,13.36,79.16
	c19.77,13.58,46.82,5.05,68.05-6.12c138.21-72.66,240.09-393.43,165.62-398.79c-63.9-4.6-152.24,187.26-183.11,302.71
	c-4.79,17.92-7.86,39.65,5.29,52.74c16.24,16.15,43.75,6.83,63.39-4.97c80.15-48.13,143.31-123.94,176.19-211.46
	c6.95-18.51,12.66-38.15,10.52-57.8s-13.73-39.36-32.36-46c-34.65-12.35-66.67,23.6-83.33,56.4
	c-32.17,63.38-52.22,132.89-58.75,203.67c-3.03,32.84,2.99,74.92,34.7,84c24.99,7.16,49.43-11.89,67.18-30.88
	c69.75-74.63,116.24-170.7,131.47-271.71c2.84-18.82,0.66-43.97-17.77-48.73c-15.46-3.99-29.04,10.41-38.35,23.39
	c-65.3,91.12-119.71,190.03-161.71,293.96c-7.66,18.96-14.18,42.81-0.54,58.05c16.59,18.54,47.21,7.97,68-5.71
	c82.95-54.59,144.05-141.46,167.38-237.98c5.1-21.09,8.43-43.36,2.93-64.34c-5.5-20.99-21.71-40.39-43.12-43.88
	c-25.48-4.15-48.85,14.19-66.58,32.96c-49.95,52.9-85.51,119.25-101.91,190.13c-10.02,43.31-5.99,100.45,35.35,116.78
	c27.81,10.99,59.11-3.08,83.54-20.32c79.95-56.44,130.7-152.15,132.58-249.99c0.38-19.71-1.31-40.18-10.84-57.43
	c-9.53-17.26-28.58-30.49-48.13-27.98c-21.57,2.76-36.48,22.43-47.72,41.05c-49.88,82.63-78.31,178.09-81.76,274.55
	c-0.86,23.9,3.29,53.25,25.53,62.03c19.56,7.73,40.71-5.8,56.51-19.69c84.26-74.08,138.98-180.87,149.92-292.53
	c3.04-31.01-5.84-72.54-36.9-74.86c-17.89-1.33-33.09,12.34-45.05,25.72c-55.38,61.96-93.67,139.03-109.6,220.59
	c-7.33,37.52-5.07,85.39,29.2,102.31c30.7,15.15,67.03-5.27,91.8-28.9c56.07-53.48,91.46-128.12,97.38-205.38
	c2.61-34.08-8.33-77.88-42.19-82.62c-24.69-3.46-45.83,17.04-60.78,37c-41.89,55.91-70.22,121.9-81.89,190.77
	c-6.23,36.73-2.5,83.54,31.63,98.49c28.77,12.6,61.39-6.08,84.8-27.02c55.96-50.05,95.57-118.09,111.47-191.46
	c7.81-36.04,1.82-85.29-34.22-93.12c-24.47-5.32-47.41,13.19-63.89,32.04c-40.1,45.88-68.17,102.17-80.71,161.8
	c-6.46,30.76-4.19,70.83,24.73,83.15c24.85,10.58,52.29-7.22,71.78-25.92c52.77-50.63,91.64-115.61,111.28-186.06
	c5.06-18.15,8.86-37.44,4.2-55.69s-20.02-34.98-38.85-35.54c-21.62-0.64-38.09,18.63-49.82,36.8
	c-41.92,64.91-68.45,139.69-76.84,216.5c-2.23,20.42-0.69,45.67,17.6,55.02c19.41,9.92,41.73-5.94,56.81-21.68
	c53.62-55.99,94.21-124.38,117.67-198.26c7.99-25.15,9.66-60.28-14.84-70.09c-20.93-8.38-42.44,10.03-56.5,27.66
	c-51.16,64.18-86.73,140.71-102.8,221.21c-6.01,30.09-3.34,70.63,26.09,79.31c20.64,6.09,41.29-8.59,56.86-23.44
	c56.77-54.13,98.96-123.42,120.99-198.71c7.48-25.58,8.21-60.9-16.63-70.54c-18.86-7.32-38.99,6.49-53.4,20.69
	c-50.57,49.82-85.13,115.65-97.44,185.56c-3.9,22.17-2.08,50.96,18.87,59.23c17.62,6.95,36.42-5.98,50.31-18.87
	c85.48-79.33,142.9-188.32,159.98-303.68c3.42-23.09-0.95-54.8-24.12-57.66c-14.65-1.8-26.99,10.25-36.46,21.57
	c-58.89,70.37-104.16,152.11-132.58,239.36c-8.42,25.87-14.33,57.34,3.69,77.72c23.52,26.6,67.71,13.24,96.72-7.24
	c68.56-48.4,114.91-127.06,124.02-210.49c2.2-20.17,2.18-41.33-6.18-59.82c-8.36-18.49-26.82-33.6-47.09-32.7
	c-23.62,1.05-41.03,21.86-54.03,41.6c-42.05,63.86-71.7,135.86-86.81,210.81c-4.27,21.15-6.26,46.21,9.2,61.27
	c22.7,22.12,60.6,4.21,84.72-16.36c82.72-70.53,142.08-168.03,166.75-273.91c6.61-28.35,2.07-69.35-26.96-71.5
	c-16.73-1.24-30.24,12.83-40.62,26.01c-71.18,90.45-121.61,197.13-146.32,309.54c-5.33,24.24-7.4,54.38,12.65,69.01
	c23.03,16.81,55.05-0.81,76.17-19.97c74.89-67.97,126.11-161.54,143-261.25c6.11-36.07,0.06-84.28-35.55-92.65
	c-29.79-7-55.71,20.68-72.09,46.53c-49.47,78.03-80.69,167.55-90.49,259.42c-2.7,25.29-1.21,55.97,20.59,69.07
	c25.48,15.31,57.13-5.32,78.16-26.32c75.63-75.5,131.21-170.91,159.6-273.93c5.49-19.93,7.68-46.07-10.12-56.6
	c-18.39-10.88-40.77,4.97-55.49,20.46c-67.61,71.14-119.37,157.25-150.48,250.33c-8.2,24.53-12.53,56.97,8.93,71.41
	c22.52,15.16,52.12-3.54,71.3-22.76c68.79-68.94,118.73-156.52,143.01-250.83c5.09-19.79,7.61-44.4-8.27-57.26
	c-20.23-16.37-49.93,1.12-67.83,20.01c-57.09,60.28-92.16,140.98-97.26,223.84c-1.56,25.3,2.39,55.55,24.83,67.34
	c30.22,15.88,63.56-14.71,82.3-43.26c34.38-52.37,62-109.19,81.94-168.58c6.67-19.86,10.5-46.17-6.88-57.87
	c-20.51-13.81-46.41,7.61-60.13,28.18c-56.04,84.03-79.97,188.93-65.89,288.95c93.45-63.37,150.3-177.2,144.84-289.97
	c-68.77,78.17-111.73,178.69-120.7,282.42c87.98-67.91,148.94-169.89,167.09-279.54c-66.31,55.71-110.31,137.28-120.43,223.29
	c-5.13,43.53,7.83,99.8,50.99,107.43c26.31,4.65,51.38-12.07,71.54-29.6c76.28-66.34,130.39-157.74,151.87-256.52
	c4.54-20.89,7.64-42.84,2.07-63.48c-5.56-20.64-21.69-39.71-42.85-42.82c-27.51-4.05-51.28,18.52-68.3,40.52
	c-47.99,62.03-81.57,135.14-97.36,211.96c-4.94,24.06-8.13,49.23-1.98,73.02c6.15,23.78,23.44,46.02,47.32,51.78
	c29.29,7.06,58.34-11.49,80.98-31.38c80-70.29,133.17-170.4,146.61-276.05c2.42-19.03,3.47-39.04-3.94-56.74
	c-7.41-17.69-25.54-32.22-44.55-29.64c-16.98,2.3-29.4,16.68-39.79,30.29c-71.11,93.13-126.66,198.11-163.67,309.28
	c-8.02,24.1-12.59,56.26,8.84,69.9c19.37,12.33,44.5-0.94,62.74-14.88c142.01-108.56,276.52-452.58,248.08-457.62
	c-44.39-7.85-202.13,192.45-250.77,321.63c-9.85,26.17-14.91,62.21,9.27,76.27c21.32,12.39,47.67-3.43,66.08-19.83
	c44.23-39.4,81.78-86.27,110.59-138.02c14.1-25.32,23.95-61.99,0.71-79.31c-23.01-17.13-55.15,2.29-74.97,23.04
	c-38.64,40.47-68.82,88.97-88.06,141.52c-6.85,18.72-11.53,41.96,1.86,56.72c16.77,18.5,47.5,9.09,68.55-4.35
	c62.55-39.94,108.29-105.38,124.3-177.85c-67.63,40.42-112.98,115.85-116.95,194.53c-0.84,16.57,1.48,35.89,15.45,44.84
	c18.94,12.14,43.26-3.5,58.86-19.71c41.16-42.77,72-95.41,89.18-152.22c5.66-18.73,9.86-38.79,4.96-57.73
	c-4.9-18.94-21.36-36.14-40.93-35.91c-27.88,0.32-43.54,31.81-50.76,58.74c-11.51,42.92-18.09,87.16-19.58,131.57
	c-0.65,19.34,0.15,40.21,11.8,55.66c25.17,33.36,80.42,17.52,109.19-12.78s46.48-71.62,81.48-94.45"/>
<path class="line" d="M50.46,968.43c2.54,14.05,5.09,28.09,7.63,42.14c198.75-66.82,414.12-460.47,348.59-476.24
	c-54.15-13.03-199.75,213.12-281.58,334.54c-19.39,28.77-39.39,65.35-23.19,96.02c20.6,38.97,78.32,32.05,119.11,15.35
	c164.73-67.48,299.03-205.8,361.62-372.45c5.25-13.99,9.05-32.18-2.35-41.85c-13.76-11.67-34.22,0.81-47.51,13.02
	C415.27,686.91,304.39,802.12,201.01,923.7c-14.56,17.12-29.74,40.64-18.75,60.24c12.57,22.42,46.01,17.36,69.82,7.68
	c157.31-63.94,283.96-199.28,337.35-360.48c6.49-19.59,11.98-40.59,7.12-60.65c-4.86-20.05-23.46-38.19-43.92-35.53
	c-13.76,1.79-24.72,11.99-34.5,21.83C414.84,660.68,328.54,781.41,263.69,912.77c-18.39,37.25-31.95,89.42,1.24,114.39
	c25.99,19.55,63.08,7.39,92.04-7.42c167.78-85.79,298.05-242.12,352.17-422.63c7.21-24.04,8.76-57.63-14.74-66.45
	c-20.6-7.73-40.6,11.73-53.9,29.26C553.7,674.21,474.4,794.19,403.25,918.83c-18.1,31.71-32.26,79.24-1.27,98.54
	c21.62,13.47,49.67,1.2,71.26-12.31C613.19,917.51,717.5,774.7,758.35,614.76c6.06-23.72,4.77-57.64-19.27-62.28
	c-15.88-3.07-29.76,10.25-40.4,22.43C598.66,689.46,503.32,808.1,412.98,930.43c-15.18,20.55-30.62,48.36-16.69,69.78
	c15.72,24.19,52.69,16.61,78.96,4.68c172.7-78.5,312.12-227.42,379.08-404.91c6.66-17.67,12.73-36.47,9.78-55.12
	c-2.95-18.65-17.75-36.75-36.63-37.08c-17.98-0.31-32.21,14.44-43.81,28.19C682.05,656.4,594.32,788.54,522.77,928.93
	c-15.21,29.83-28.15,70.23-3.82,93.23c22.51,21.28,59.28,10.09,86.69-4.34c156.83-82.55,274.14-236.68,311.94-409.84
	c4.24-19.42,7.47-40,1.28-58.89s-24.68-35.16-44.35-32.29c-16.39,2.39-28.21,16.45-38.28,29.6
	c-90.04,117.49-171.58,241.5-243.76,370.73c-13.15,23.54-25.65,54.16-9.27,75.57c11.23,14.67,32.65,18.24,50.48,13.41
	s32.95-16.4,47.54-27.74c83.61-65.01,167.89-132.25,227.75-219.62s132.13-293.09,62.89-300.85
	c-138.1-15.48-231.54,316.97-326.44,488.57c-13.38,24.2-25.63,56.9-6.58,76.94c18.2,19.14,50.05,10.45,73.82-1.07
	c153.74-74.51,273.48-216.12,321.41-380.11c8.06-27.56,6.34-68.2-22.1-72.17c-16.89-2.36-31.26,11.5-42.56,24.27
	c-87.9,99.35-170.07,203.78-245.94,312.6c-18.45,26.46-34.8,67.08-9.15,86.63c16.23,12.37,39.41,6.74,58.51-0.44
	c165.53-62.17,298.92-204.27,350.51-373.4c6.34-20.77,11.54-42.76,7.27-64.06c-4.27-21.3-20.43-41.61-42.01-44.14
	c-22.77-2.67-42.8,14.07-59.21,30.08c-95.04,92.76-176.42,199.49-240.7,315.7c-23.47,42.44-43.26,99.49-10.72,135.46
	c19.58,21.64,52.7,26.55,81.02,19.5c28.32-7.05,52.98-24.07,76.67-41.12c71.51-51.45,141.87-107.38,191.33-180.28
	s75.88-165.87,51.89-250.63C1054.75,654.83,947.3,787.46,861,932.67c-12.25,20.6-23.27,49.29-6.25,66.17
	c14.77,14.66,39.52,8.44,58.66,0.28c157.82-67.24,284.25-204.54,338.27-367.36c5.78-17.42,10.82-35.82,7.89-53.94
	c-2.93-18.12-15.94-35.83-34.09-38.57c-20.11-3.03-37.96,12.14-52.37,26.49c-98.16,97.77-183.61,208.29-253.52,327.91
	c-14.63,25.03-28.06,58.56-9.44,80.79c19.53,23.32,57.09,13.8,84.27,0.17c147.69-74.07,259.55-216.06,297.01-376.98
	c4.02-17.25,7.19-35.5,2.1-52.47s-20.91-31.96-38.54-30.32c-14.77,1.38-26.07,13.27-35.76,24.5
	c-94.92,110.07-175.57,232.42-239.32,363.03c-12.45,25.52-23.47,58.52-4.92,80.02c12.55,14.54,34.84,17.22,53.2,11.56
	c18.36-5.66,33.73-18.09,48.6-30.24c70.76-57.83,142.25-116.51,196.7-189.9c54.45-73.39,168.1-225.17,81.76-255.13
	c-148.1-51.41-205.43,237.51-286.86,371.47c-14.12,23.24-25.77,58.01-3.47,73.57c14.67,10.24,34.77,4.07,51.15-3.15
	c131.99-58.18,241.38-166,301.47-297.13c9.06-19.76,17.17-40.79,16.3-62.51s-12.87-44.32-33.37-51.55
	c-29.15-10.28-58.68,12.93-79.97,35.34c-89.14,93.83-159.6,205.33-206.08,326.12c-12.2,31.7-18.61,75.92,11.16,92.26
	c18.38,10.09,41.18,2.98,60.35-5.51c181.45-80.37,477.49-413.62,289.86-478.25c-150.41-51.81-198.03,249.67-274.34,389.25
	c-13.59,24.86-25.46,59.09-4.82,78.5c18.14,17.07,47.6,8.67,70.02-2.18c121.61-58.84,220.62-163.04,273.15-287.51
	c8.93-21.16,16.68-43.57,15.66-66.52c-1.02-22.95-12.53-46.68-33.31-56.47c-30.36-14.3-65.43,5.15-91.82,25.89
	c-85.41,67.15-153.41,156.27-195.62,256.38c-14.4,34.16-22.4,81.13,8.28,101.93c24.69,16.74,58.16,4.26,84.01-10.62
	c132.1-76.04,229.57-209.82,261.46-358.86c5.06-23.65,1.66-57.4-22.39-59.87c-15.12-1.56-27.21,11.72-36.51,23.74
	c-94.91,122.57-188.94,245.82-282.08,369.74c-16.62,22.11-32.98,54.56-13.98,74.67c15.66,16.58,43.08,10.14,64.06,1.2
	c157.46-67.13,279.5-212.01,318.89-378.59c3.88-16.42,7-33.67,2.87-50.02s-17.39-31.54-34.22-32.71
	c-17.93-1.25-32.9,12.74-45.22,25.82c-89.36,94.91-171.35,196.75-244.99,304.3c-15.92,23.25-32.02,52.53-20,78.01
	c9.37,19.87,33.62,29.18,55.53,27.5s42.06-12.15,61.32-22.72c80.27-44.06,158.78-95.03,216.88-165.81
	c58.1-70.78,164.77-225.04,78.09-254.57c-155.76-53.08-225,241.59-305.71,385c-8.06,14.32-15.8,32.64-6.48,46.18
	c11.04,16.05,35.66,11.41,53.68,4.02c138.64-56.85,251.13-174.34,301.9-315.31c8.34-23.15,9.94-57.24-13.72-64.01
	c-15.43-4.41-30.42,7.32-41.99,18.44c-85.45,82.1-158.45,177.15-215.73,280.89c-13.31,24.1-24.62,57.27-4.76,76.33
	c22.35,21.45,58.72,2.35,82.99-16.9c68.22-54.1,137.12-108.88,190.87-177.39s168.55-206.47,88.24-240.09
	c-156.21-65.39-237.86,241.83-335,380.54c-13.92,19.88-27.28,48.11-11.18,66.28c16.74,18.89,47.54,7.34,69.36-5.35
	c72.9-42.41,146.98-85.75,204.16-147.76c57.17-62,156.55-188.46,83.15-230c-119.07-67.39-229.82,158.17-277.86,286.27
	c-6.4,17.07-10.93,38.81,2.18,51.48c13.68,13.23,36.26,6.84,53.52-1.17c109.85-50.99,203.15-136.93,262.97-242.23
	c12.82-22.56,23.58-52.61,7.09-72.65c-20.62-25.06-61.08-9.91-87.79,8.51c-84.69,58.42-157.67,133.73-213.4,220.21
	c-10.98,17.04-21.52,35.09-24.5,55.14s3.18,42.68,19.91,54.13c22.38,15.32,52.85,5.63,77.23-6.25
	c114.69-55.92,208.9-152.77,261.63-268.96c9.2-20.27,13.96-50.18-6.23-59.55c-14.87-6.91-31.6,3.88-44.16,14.43
	c-115.85,97.3-206.71,224.11-261.57,365.1c153.91-52.68,281.92-176.29,339.97-328.26c9.01-23.59,13.56-56.11-8.21-68.9
	c-19.16-11.25-42.94,2.66-60.06,16.82c-85.18,70.42-153.89,160.64-199.14,261.47c-11.78,26.24-19.24,63.02,4.8,78.82
	c19.01,12.49,44.32,1.88,63.63-10.14c92.69-57.69,165.18-147.17,202.39-249.8"/>
<path class="line" d="M93.31,814.63c-14.63,1.04-21.73,21.6-13.58,33.79c8.15,12.19,25.51,15.35,39.54,11.06
	c14.03-4.29,25.42-14.41,36-24.57c117.04-112.35,316.99-380.67,254.57-410.77c-35.09-16.93-185.86,251.21-209.69,403.68
	c-5.95,38.06-0.55,89,36.93,97.9c23.97,5.69,47.2-10.6,65.79-26.77c171.14-148.92,354.06-587.4,273.92-600.6
	c-48.18-7.94-242.81,341.79-306.26,540.44c-9.71,30.42-16.48,68.81,7.46,89.94c29.41,25.96,75.02,1.73,104.42-24.24
	C546.78,759.25,717.89,347.1,683.84,335.5c-34.8-11.86-136.94,170.45-205.41,255.68c-60.07,74.77-121.11,151.22-154.65,241.07
	c-11.53,30.88-16.5,72.37,10.87,90.73c25.59,17.16,59.81,0.7,84.96-17.1C571.39,798.48,682.82,635.42,727.72,455
	c4.33-17.38,2.79-42.84-15.03-44.57c-10.06-0.98-18.36,7.34-24.96,15c-108.04,125.23-205.2,259.84-290.04,401.81
	c-11.39,19.06-22.82,39.04-24.9,61.15c-2.08,22.1,7.89,46.95,28.54,55.12c21.71,8.59,45.72-3.44,65.42-15.98
	c162.14-103.3,283.23-269.23,332.14-455.15c7.22-27.44,5.58-67.12-22.41-71.77c-17.98-2.98-33.29,12.34-44.9,26.39
	C628.37,551.96,538.15,687.65,462.85,831.17c-15.14,28.85-25.54,72.48,3.52,87.22c19.94,10.12,43.44-3.09,61.28-16.59
	c165.04-124.87,275.63-319.3,298.59-524.98c1.8-16.16-3.03-39.09-19.23-37.78c-8.63,0.7-14.51,8.76-19.17,16.06
	C689.05,509.7,590.26,664.31,491.48,818.91c-18.36,28.74-35.5,70.09-10.36,93.13c23.47,21.5,60.96,5.03,86.9-13.42
	c126.65-90.11,227.91-215.51,289.35-358.28c24.39-56.68,41.54-125.68,7.62-177.23c-82.1,133.48-164.2,266.96-246.3,400.44
	c-26.57,43.2-54.22,91.54-45.49,141.49c179.22-115.12,309.17-304.38,352.22-513c3.46-16.79,3.38-39.36-12.74-45.18
	c-15.36-5.55-29.61,9.93-38.6,23.56C775.65,519.6,685.46,674.21,604.08,833.33c-13.73,26.84-23.64,66.8,2.89,81.12
	c17.16,9.26,38.12-0.24,54.78-10.37c163.41-99.34,278.37-274.71,304.28-464.19C844.96,562.79,742.51,704,663.25,857.24
	c-5.82,11.24-11.26,25.77-3.31,35.62c10.31,12.78,30.79,4.35,44.11-5.25c139.99-100.9,244.8-249.66,292.7-415.44
	c2.46-8.5,4.48-18.6-1.14-25.43c-10.58-12.88-30.66,0.83-40.89,13.98c-108.72,139.63-221.28,288-246.1,463.22
	c178.46-92.49,311.21-268.72,350.86-465.77c3.69-18.36,1.61-44.31-16.93-46.89c-11.61-1.62-21.4,8.1-28.95,17.07
	C898.8,564.75,815.01,727.09,770.33,899.68c183.08-85.92,505.81-411.22,316.33-481.93C918.6,355.04,875.62,708.58,796.34,869.49
	c-5.05,10.25-9.45,24.13-0.97,31.79c8.04,7.27,20.76,2.51,30.21-2.81c166.55-93.75,313.24-456.03,292.68-465.72
	c-63.66-30-203.27,241.39-242.77,392.44c-4.39,16.77-7.06,37.57,6.15,48.79c16.01,13.61,40.3,1.5,56.85-11.46
	c115.38-90.39,198.28-221.41,230.55-364.39c5.44-24.12,3.45-58.12-20.85-62.73c-17.49-3.32-32.15,12.59-42.68,26.95
	c-80.88,110.23-152.49,227.27-213.82,349.46c-10.47,20.85-18.78,50.39,0.18,63.97c18.75,13.42,43.79-3.39,60.46-19.32
	c63.54-60.74,127.59-122.08,176.95-194.8s161.17-212.3,80.21-246.54c-51.6-21.83-191.54,291.1-269.25,446.89
	c-9.34,18.71-18.23,42.2-6.08,59.23c17.45,24.45,55.93,9.55,79.99-8.45c161.15-120.56,278.12-298.91,324.49-494.76
	c5.57-23.53,1.68-58.57-22.5-58.38c-12.51,0.1-21.88,11.05-29.37,21.07c-105.46,140.98-201.07,289.33-285.91,443.6
	c-16.17,29.41-29.56,71.78-2.56,91.72c22.43,16.57,53.95,2.12,76.98-13.6c194.36-132.68,400.55-564.06,346.62-589
	c-86.57-40.03-232.26,370.91-348.39,556.36c-13.12,20.96-25.99,49.31-10.28,68.4c17.61,21.4,52.11,9.17,75.5-5.7
	c129.54-82.34,235.84-200.81,303.71-338.49c40.26-81.68,66-182.73,19.56-261.07c-129.94,174.12-251.17,354.74-363.07,540.96
	c-14.45,24.04-27.96,57.3-8.44,77.45c19.12,19.73,52.22,8.22,76.02-5.5c241.02-138.91,518.75-657.35,436.88-674.64
	c-38.26-8.08-67.33,36.15-89.46,68.39c-103.49,150.69-206.97,301.38-310.46,452.07c-16.95,24.68-34.35,50.45-39.06,80.02
	c-4.71,29.57,7.22,64.07,34.83,75.66c26.71,11.21,56.98-1.96,82.13-16.33c218.91-125.14,365.91-367.59,375.65-619.55
	c-134.98,189.09-269.97,378.18-404.95,567.27c-10.08,14.13-20.29,33.5-10.01,47.48c11.87,16.14,37.28,7.72,54.42-2.65
	c208.85-126.45,361.8-341.81,412.4-580.65c4.97-23.44,1.38-57.49-22.55-58.58c-13.56-0.62-24.05,11.22-32.29,22.01
	c-125.55,164.38-240.92,336.52-345.25,515.12c-13.81,23.65-27.7,48.15-31.59,75.26c-3.9,27.11,4.42,57.76,27.19,72.96
	c34.01,22.71,79.56,2.03,113.34-21.03c196.43-134.05,332.47-353.31,365.35-588.84c2.31-16.54-0.86-39.66-17.53-40.75
	c-10.54-0.69-18.54,8.91-24.63,17.54c-129.44,183.42-258.87,366.84-388.31,550.26c-12.63,17.9-24.99,43.61-10.01,59.61
	c14.28,15.25,39.59,6.4,57.69-4.03c214.39-123.53,367.57-348.11,404.33-592.79c3.17-21.09,1.86-48.69-18.21-55.9
	c-18.44-6.63-36.33,10.18-48.67,25.4c-128.71,158.65-246,326.57-350.65,502.02c-19.2,32.18-38.23,72.5-19.85,105.16
	c15.56,27.66,53.3,36.29,83.83,27.62c30.53-8.67,55.31-30.59,78.16-52.62c142.5-137.38,259.98-322.25,245.22-519.64
	c-1.6-21.34-16.41-49.74-35.83-40.76c-6.15,2.84-10.03,8.93-13.57,14.7c-99,161.41-198.01,322.83-297.01,484.24
	c-11.85,19.32-23.27,45.74-8.16,62.62c16.26,18.16,46.1,6.67,66.45-6.74c171.76-113.17,297.03-294.79,341.78-495.56
	c7.22-32.41,3.4-78.63-29.53-82.91c-21.19-2.76-38.55,15.75-51.61,32.67c-109.63,142-202.7,296.78-276.73,460.19
	c-8.04,17.74-15.98,36.12-16.68,55.58s7.45,40.48,24.64,49.62c25.3,13.46,55.68-3.39,78.44-20.8
	c166.77-127.59,282.57-319.99,317.24-527.09c3.11-18.58,0.99-44.19-17.55-47.56c-14.26-2.59-25.67,11.15-33.61,23.27
	c-107.97,165.04-215.95,330.08-323.92,495.12c-12.84,19.63-24.7,48.48-6.86,63.72c15.12,12.92,38.24,3.44,55.09-7.12
	c131.88-82.67,233.91-211.92,283.71-359.39c9.21-27.27,10.13-67.47-17.86-74.2c-18.18-4.37-34.95,10.27-47.73,23.92
	c-89.56,95.68-167.8,201.96-232.54,315.91c-16.32,28.72-31.11,67-9.8,92.23c25.43,30.11,74.55,11.23,106.03-12.49
	c93.41-70.36,165.83-168.24,205.82-278.14c6.48-17.8,8.35-43.94-9.73-49.57c-11.66-3.63-23.32,4.91-32.38,13.09
	c-101.11,91.3-177.68,209.53-219.65,339.13c116.4-30.37,213.22-126.52,244.41-242.7c-114.4,53.18-200.38,163.62-223.9,287.56
	c97.04-41.24,177.99-119.1,222.97-214.46c6.67-14.14,12.26-31.93,2.87-44.43c-14.74-19.64-45.95-4.73-63.5,12.45
	c-47,46.01-83.63,102.56-106.41,164.27c-4.99,13.51-8.57,30.66,1.77,40.67c12.14,11.75,32.33,3.62,46.23-6
	c73.98-51.2,125.92-133.21,140.58-221.98c-87.4,45.68-153.43,130.42-176.37,226.34c68.92-41.73,127.02-101.15,167.21-170.98
	c-60.2,49.85-111.83,110.04-151.95,177.12c27.5-9.96,55-19.92,82.5-29.89"/>
</svg>